# xmcd
#
# Track frame offsets:
#	150
#	38406
#	51906
#	69717
#	104083
#	131185
#	164907
#	187532
#	204080
#	230189
#	250418
#	273378
#
# Disc length: 3952 seconds
#
# Revision: 1
# Processed by: cddbd v1.5.2PL0 Copyright (c) Steve Scherf et al.
# Submitted via: audiograbber 1.83.01
#
DISCID=b30f6e0c
DTITLE=Grateful Dead - 73-12-18 Curtis Hixon Convention Hall, Tampa FL
DYEAR=1900
DGENRE=
TTITLE0=Tennessee Jed
TTITLE1=Me and My Uncle
TTITLE2=Don't Ease Me In
TTITLE3=Looks Like Rain
TTITLE4=They Love Each Other
TTITLE5=Me and Bobby McGee
TTITLE6=Brown Eyed Women
TTITLE7=BIODTL
TTITLE8=Peggy-O
TTITLE9=El Paso
TTITLE10=Deal
TTITLE11=Jack Straw
EXTD=
EXTT0=
EXTT1=
EXTT2=
EXTT3=
EXTT4=
EXTT5=
EXTT6=
EXTT7=
EXTT8=
EXTT9=
EXTT10=
EXTT11=
PLAYORDER=
